<svg xmlns="http://www.w3.org/2000/svg" width="165.452" height="33.53" viewBox="0 0 165.452 33.53">
  <g id="Group_33" data-name="Group 33" transform="translate(-518.491 -469.013)">
    <path id="Path_103" data-name="Path 103" d="M611.3,475.385l-1.019-6.372h5.378l1.014,6.372Z" transform="translate(40.198 0.001)" fill="#333"/>
    <path id="Path_104" data-name="Path 104" d="M611.3,481.834l-1.019-6.371h5.378l1.014,6.371Z" transform="translate(40.198 2.825)" fill="#333"/>
    <path id="Path_105" data-name="Path 105" d="M609.6,496.892l2.38-14.976h5.386l-2.4,14.976Z" transform="translate(39.898 5.651)" fill="#333"/>
    <path id="Path_106" data-name="Path 106" d="M576.5,473.062h-.034v-2.827l.9-1.221h-6.179v4.048H558.686v24.68H571.2v2.4l-1.776,2.4h7.05v-4.8h8.653l3.855-4.4V473.062Zm-5.342,19.372h-7.2V478.371h7.234v14.063Zm12.543,0h-7.236V478.371H583.7Z" transform="translate(17.602 0.001)" fill="#333"/>
    <g id="Group_30" data-name="Group 30" transform="translate(518.491 469.013)">
      <path id="Path_107" data-name="Path 107" d="M542.428,469.013h-4.5l.9,1.073-.423,2.965h3.373l-4.707,29.489h5.365v0h1.81L542.72,500.8l5.088-31.783Z" transform="translate(-510.353 -469.013)" fill="#e60012"/>
      <path id="Path_108" data-name="Path 108" d="M533.409,469.013h-4.5l.9,1.073-.423,2.965h3.373l-4.707,29.489h5.365v0h1.81L533.7,500.8l5.088-31.783Z" transform="translate(-514.302 -469.013)" fill="#e60012"/>
      <path id="Path_109" data-name="Path 109" d="M523.843,469.013h-4.5l.9,1.073-.423,2.965H523.2l-4.707,29.489h5.365v0h1.81l-1.532-1.747,5.088-31.783Z" transform="translate(-518.491 -469.013)" fill="#e60012"/>
      <path id="Path_110" data-name="Path 110" d="M556.761,469.013h-9.878l.9,1.073-.423,2.965h3.373l-4.707,29.489h5.365v0h1.81l-1.532-1.747Z" transform="translate(-506.432 -469.013)" fill="#e60012"/>
    </g>
    <path id="Path_111" data-name="Path 111" d="M629.905,476.569v0h-7.667l-.758,4.776h5.84l.295-1.859h-4.024l.169-1.058h5.832l-.488,2.905,1.815.016.8-4.769Z" transform="translate(45.101 3.309)" fill="#333"/>
    <g id="Group_31" data-name="Group 31" transform="translate(658.746 470.079)">
      <path id="Path_112" data-name="Path 112" d="M616.868,481.417h5.621l-1.425-1.625.759-4.747h-1.629l.908-5.292h-3.981l-1.089,6.371h1.681Z" transform="translate(-616.032 -469.754)" fill="#333"/>
      <path id="Path_113" data-name="Path 113" d="M616.287,480.46h5.653l.3-1.859h-5.648Z" transform="translate(-615.919 -465.88)" fill="#333"/>
    </g>
    <g id="Group_32" data-name="Group 32" transform="translate(677.486 470.079)">
      <path id="Path_114" data-name="Path 114" d="M629.9,481.417h5.621l-1.425-1.625.759-4.747h-1.629l.908-5.292h-3.982l-1.089,6.371h1.681Z" transform="translate(-629.064 -469.754)" fill="#333"/>
      <path id="Path_115" data-name="Path 115" d="M629.32,480.46h5.653l.295-1.859H629.62Z" transform="translate(-628.952 -465.88)" fill="#333"/>
    </g>
    <path id="Path_116" data-name="Path 116" d="M613.382,481.156l1.441-9h-5.381l-.848,5.337H590.258l1.02-6.371h0l2.4-2.106h-7.445L584.043,482.8h30.779Z" transform="translate(28.706 0)" fill="#333"/>
    <line id="Line_2" data-name="Line 2" x1="4.627" y2="5.274" transform="translate(633.392 497.269)" fill="#333"/>
    <path id="Path_117" data-name="Path 117" d="M584.947,479.894v17.884h15.964l4.827-5.274H590.221v-7.268h18.7V492.5l-4.827,5.274h6.517l3.617-3.956V479.894Z" transform="translate(29.102 4.765)" fill="#333"/>
    <path id="Path_118" data-name="Path 118" d="M641.229,488.563H620.765l.234-1.487h16.768l3.464-2.984V480.96H616.6l-.416,2.312h20.538l-1.752,1.492H615.981l-.953,6.111h20.9v2.446H620.765l-3.211,3.989h20.519l3.158-3.45Z" transform="translate(42.275 5.232)" fill="#333"/>
    <path id="Path_119" data-name="Path 119" d="M632.134,476.279h-11.2l.232-1.453h11.183Z" transform="translate(44.863 2.546)" fill="#333"/>
    <path id="Path_120" data-name="Path 120" d="M630.709,474.533h-9.5l.232-1.453h9.487Z" transform="translate(44.982 1.781)" fill="#333"/>
    <path id="Path_121" data-name="Path 121" d="M629.406,471.112l2.392-2.1h-7.434l-.515,3.239h-3.225l-.232,1.453h11.08l.218-1.453h-2.467Z" transform="translate(44.624 0)" fill="#333"/>
  </g>
</svg>
