<svg xmlns="http://www.w3.org/2000/svg" width="32.89" height="32.89" viewBox="0 0 32.89 32.89">
  <g id="Group_11409" data-name="Group 11409" transform="translate(-186 -3623)">
    <path id="Path_13322" data-name="Path 13322" d="M16.445,0A16.445,16.445,0,1,1,0,16.445,16.445,16.445,0,0,1,16.445,0Z" transform="translate(186 3623)" fill="#ff6473"/>
    <g id="Group_10861" data-name="Group 10861" transform="translate(-566.33 3496.143) rotate(-45)">
      <path id="Path_13335" data-name="Path 13335" d="M451.19,648.341c-.029,0-.059,0-.088,0a1.392,1.392,0,0,1-.381-.079,6.711,6.711,0,0,0-.843-.232,38.357,38.357,0,0,0-7.8-.737,35.023,35.023,0,0,0-9.013,1.038.5.5,0,0,1-.12.013c-1.181-.016-2.106-1.565-2.106-3.526s.925-3.51,2.105-3.526a.582.582,0,0,1,.122.014,29.589,29.589,0,0,0,5.869.93.379.379,0,0,1,.359.376.373.373,0,0,1-.371.367h-.026a30.545,30.545,0,0,1-5.977-.942c-.648.047-1.338,1.172-1.338,2.781s.691,2.734,1.339,2.781a32.452,32.452,0,0,1,6.813-.99,2.691,2.691,0,0,1-.328-.714,4.645,4.645,0,0,1,0-2.153,2.091,2.091,0,0,1,.857-1.234,3.2,3.2,0,0,1-.782-.522A1.073,1.073,0,0,1,441,640.465a4.154,4.154,0,0,1,.729,1.218,4.391,4.391,0,0,1,.729-1.218,1.073,1.073,0,0,1,1.517,1.517,2.42,2.42,0,0,1-.444.334,36.388,36.388,0,0,0,6.258-.694,7.5,7.5,0,0,0,.943-.254,1.382,1.382,0,0,1,.462-.08c1.191,0,2.125,1.549,2.125,3.527S452.382,648.341,451.19,648.341Zm0-6.31c-.667,0-1.381,1.118-1.381,2.783s.714,2.784,1.381,2.784,1.381-1.118,1.381-2.784S451.857,642.031,451.19,642.031Zm-1.571.383a40.042,40.042,0,0,1-7.357.668h-.012c-.3,0-.607.391-.757.952a4.3,4.3,0,0,0,0,1.563c.151.566.456.948.756.948h.009a40.077,40.077,0,0,1,7.36.668,5.477,5.477,0,0,1,0-4.8Zm-9.281,3.76a.737.737,0,0,0,.6.386l.16,0a2.587,2.587,0,0,1-.234-.478,4.534,4.534,0,0,1,0-2.526,2.613,2.613,0,0,1,.235-.479l-.162,0a.758.758,0,0,0-.6.387A3.906,3.906,0,0,0,440.339,646.174Zm-.1-5.28a.329.329,0,0,0-.233.562,3.979,3.979,0,0,0,1.075.609,3.984,3.984,0,0,0-.609-1.075A.327.327,0,0,0,440.238,640.894Zm2.975,0a.327.327,0,0,0-.233.1,3.976,3.976,0,0,0-.609,1.075,3.98,3.98,0,0,0,1.075-.609.329.329,0,0,0-.233-.562Z" fill="#fff"/>
      <path id="Path_13336" data-name="Path 13336" d="M440.4,646.835a2.59,2.59,0,0,0,.367.766,32.36,32.36,0,0,0-6.889.995c-.677-.04-1.387-1.165-1.387-2.825s.71-2.784,1.387-2.825a30.453,30.453,0,0,0,5.975.942h.023a.328.328,0,0,0,.328-.324.337.337,0,0,0-.319-.332,29.632,29.632,0,0,1-5.879-.932.571.571,0,0,0-.108-.012c-1.158.016-2.062,1.54-2.062,3.483s.9,3.466,2.063,3.482a.462.462,0,0,0,.108-.012,35.063,35.063,0,0,1,9.025-1.039,38.371,38.371,0,0,1,7.812.738,6.806,6.806,0,0,1,.848.233,1.345,1.345,0,0,0,.37.077c.028,0,.056,0,.084,0,1.167,0,2.081-1.53,2.081-3.483s-.914-3.483-2.081-3.483a1.336,1.336,0,0,0-.448.078,7.47,7.47,0,0,1-.948.256,36.852,36.852,0,0,1-6.438.7,2.741,2.741,0,0,0,.583-.414,1.029,1.029,0,1,0-1.456-1.456,4.537,4.537,0,0,0-.759,1.3,4.54,4.54,0,0,0-.76-1.3,1.029,1.029,0,0,0-1.455,1.456,3.388,3.388,0,0,0,.845.552,1.989,1.989,0,0,0-.909,1.247A4.559,4.559,0,0,0,440.4,646.835Zm3.5-4.919a.373.373,0,0,1,.528.528,4.3,4.3,0,0,1-1.188.66A4.3,4.3,0,0,1,443.9,641.916Zm-2.975.528a.373.373,0,0,1,.528-.528,4.3,4.3,0,0,1,.66,1.188A4.3,4.3,0,0,1,440.93,642.444Zm.326,1.948a.8.8,0,0,1,.642-.41l.242,0a2.5,2.5,0,0,0-.274.536,4.442,4.442,0,0,0,0,2.5,2.488,2.488,0,0,0,.273.536l-.24.005a.784.784,0,0,1-.644-.41,3.9,3.9,0,0,1,0-2.758m1.152.588c.156-.583.479-.984.8-.984h.012a39.562,39.562,0,0,0,7.443-.686,5.384,5.384,0,0,0,0,4.923,39.572,39.572,0,0,0-7.443-.686h-.011c-.323,0-.642-.4-.8-.984A4.3,4.3,0,0,1,442.408,644.979Zm9.738,3.618c-.688,0-1.425-1.136-1.425-2.827s.737-2.827,1.425-2.827,1.425,1.136,1.425,2.827S452.835,648.6,452.147,648.6Z" transform="translate(-0.956 -0.956)" fill="#fff"/>
    </g>
  </g>
</svg>
