<svg xmlns="http://www.w3.org/2000/svg" width="32.89" height="32.89" viewBox="0 0 32.89 32.89">
  <g id="Group_10875" data-name="Group 10875" transform="translate(-966 -3623)">
    <path id="Path_13322" data-name="Path 13322" d="M16.445,0A16.445,16.445,0,1,1,0,16.445,16.445,16.445,0,0,1,16.445,0Z" transform="translate(966 3623)" fill="#ff6473"/>
    <g id="Group_10869" data-name="Group 10869" transform="translate(3.397 2744.83)">
      <g id="Group_10871" data-name="Group 10871" transform="translate(972.28 886.181)">
        <g id="Group_10870" data-name="Group 10870" transform="translate(0 0)">
          <g id="Group_10869-2" data-name="Group 10869">
            <path id="Path_13340" data-name="Path 13340" d="M994.278,938.8a.445.445,0,1,1,0-.89h7.381a.445.445,0,0,1,0,.89Z" transform="translate(-991.527 -932.376)" fill="#fff"/>
            <path id="Path_13341" data-name="Path 13341" d="M994.278,956.047a.445.445,0,1,1,0-.89h7.381a.445.445,0,0,1,0,.89Z" transform="translate(-991.527 -947.776)" fill="#fff"/>
            <path id="Path_13342" data-name="Path 13342" d="M994.278,973.292a.445.445,0,1,1,0-.89h5.305a.445.445,0,1,1,0,.89Z" transform="translate(-991.527 -963.176)" fill="#fff"/>
            <path id="Path_13343" data-name="Path 13343" d="M972.725,903.677a.445.445,0,0,1-.445-.445V886.626a.446.446,0,0,1,.445-.445h7.84l.042,0,.04.006.017,0,.022.006.018.006.038.014.022.01.022.012.025.015.028.02,4.151,3.229a.442.442,0,0,1,.172.351v3.128l3.265-2.935a.445.445,0,0,1,.628.033l2.6,2.9a.441.441,0,0,1,.113.321.448.448,0,0,1-.147.307l-1.931,1.735-4.533,4.077v3.813a.445.445,0,0,1-.445.445Zm11.548-.89v-2.568l-.37.333-.029.024a.414.414,0,0,1-.042.028l-.01.006-.036.018-.012.005a.4.4,0,0,1-.049.017l-4.2,1.157a.445.445,0,0,1-.532-.592l1.594-4.055c.008-.02.015-.033.021-.045l.006-.011a.447.447,0,0,1,.028-.043.474.474,0,0,1,.034-.04l.029-.028,3.569-3.209V890.4l-3.629.517a.445.445,0,0,1-.508-.439l-.013-3.406H973.17v15.716Zm-4.127-2.074,2.647-.729-1.642-1.827Zm3.493-1.12,5.131-4.614-2.009-2.235-5.132,4.614Zm5.792-5.209,1.27-1.141-2.01-2.235-1.269,1.141Zm-8.407-4.421,2.626-.374-2.635-2.05Z" transform="translate(-972.28 -886.181)" fill="#fff"/>
          </g>
        </g>
      </g>
      <g id="Group_10874" data-name="Group 10874" transform="translate(972.321 886.221)">
        <g id="Group_10873" data-name="Group 10873" transform="translate(0 0)">
          <g id="Group_10872" data-name="Group 10872">
            <path id="Path_13344" data-name="Path 13344" d="M994.615,939.1H1002a.4.4,0,0,0,0-.809h-7.381a.4.4,0,1,0,0,.809Z" transform="translate(-991.905 -932.754)" fill="#fff"/>
            <path id="Path_13345" data-name="Path 13345" d="M994.615,956.344H1002a.4.4,0,0,0,0-.809h-7.381a.4.4,0,1,0,0,.809Z" transform="translate(-991.905 -948.154)" fill="#fff"/>
            <path id="Path_13346" data-name="Path 13346" d="M1000.325,973.185a.4.4,0,0,0-.4-.4h-5.305a.4.4,0,1,0,0,.809h5.305A.4.4,0,0,0,1000.325,973.185Z" transform="translate(-991.905 -963.554)" fill="#fff"/>
            <path id="Path_13347" data-name="Path 13347" d="M991.969,893.343l-2.6-2.9a.4.4,0,0,0-.571-.03l-1.93,1.735h0l-1.4,1.26v-3.219a.4.4,0,0,0-.156-.319l-4.151-3.229-.014-.01-.011-.008-.023-.014-.018-.01-.022-.011-.016-.006-.018-.006-.017-.005-.019,0-.017,0-.022,0-.014,0-.037,0h-7.842a.4.4,0,0,0-.4.4v16.606a.4.4,0,0,0,.4.4h11.993a.4.4,0,0,0,.4-.4v-3.831l4.546-4.088h0l1.931-1.735a.4.4,0,0,0,.03-.571Zm-7.88-3.391-2.767.394-.01-2.553Zm-10.621,13.212v-15.8H980.5l.013,3.446a.4.4,0,0,0,.461.4l3.675-.523v3.449l-3.583,3.221-.016.016-.009.009a.4.4,0,0,0-.03.037h0a.39.39,0,0,0-.025.04l-.005.009c-.006.011-.012.023-.016.035l0,.006-1.594,4.055a.4.4,0,0,0,.484.538l4.2-1.157h0l.044-.015.011,0,.033-.016.01-.005a.424.424,0,0,0,.038-.025l.006,0,.021-.017.438-.394v2.7Zm8.008-4.747.777.864.953,1.06-2.788.768Zm2.5,1.569-1.549-1.724-.514-.572,5.192-4.668.688.766,1.375,1.53Zm5.793-5.209-1.111-1.236-.952-1.06,1.329-1.195,2.064,2.3Z" transform="translate(-972.659 -886.559)" fill="#fff"/>
          </g>
        </g>
      </g>
    </g>
  </g>
</svg>
