<svg xmlns="http://www.w3.org/2000/svg" width="32.89" height="32.89" viewBox="0 0 32.89 32.89">
  <g id="Group_11408" data-name="Group 11408" transform="translate(-576 -3623)">
    <path id="Path_13322" data-name="Path 13322" d="M16.445,0A16.445,16.445,0,1,1,0,16.445,16.445,16.445,0,0,1,16.445,0Z" transform="translate(576 3623)" fill="#ff6473"/>
    <g id="Group_10868" data-name="Group 10868" transform="translate(6.641 3356.663)">
      <g id="Group_10865" data-name="Group 10865" transform="translate(575.172 274.258)">
        <g id="Group_10864" data-name="Group 10864" transform="translate(0 0)">
          <path id="Path_13338" data-name="Path 13338" d="M595.639,280.849c-.833-2.716-2.392-5.641-3.826-5.641a1,1,0,0,0-.24.032h-.06a1.021,1.021,0,0,0-.373.212l-14.291,8.71c-.849.324-.8,1.879-.4,3.205a5.628,5.628,0,0,0,.877,1.767,1.43,1.43,0,0,0,1.082.677.8.8,0,0,0,.188-.024l1.3-.144.128,1.2a.905.905,0,0,0,.9.8h.092l5.012-.521a.905.905,0,0,0,.8-.994l-.136-1.314,8.43-.97a1.019,1.019,0,0,0,.3-.044c.469-.144,1.03-.7,1.022-2.508A15.95,15.95,0,0,0,595.639,280.849ZM578.487,289h-.068c-.18.028-.8-.609-1.2-1.883s-.24-2.135-.088-2.224h.048l2.175-1.322a8.814,8.814,0,0,0,1.6,5.14Zm7.508,1.31v0a.1.1,0,0,1-.068.036l-5.012.521a.1.1,0,0,1-.112-.092l-.128-1.23,5.208-.613.132,1.314A.1.1,0,0,1,586,290.313Zm-4.1-1.711a8.135,8.135,0,0,1-1.707-5.525l10.373-6.322a6.251,6.251,0,0,0-.068,1,15.947,15.947,0,0,0,.8,4.447,13.273,13.273,0,0,0,2.584,4.98Zm13.294-1.555h-.108c-.625-.052-2.039-1.851-3.041-5.072a15.155,15.155,0,0,1-.749-4.215,2.6,2.6,0,0,1,.349-1.659l.14-.084h.032c.609,0,2.055,1.807,3.069,5.076a15.146,15.146,0,0,1,.749,4.215C595.639,286.526,595.367,286.959,595.19,287.047Z" transform="translate(-576.17 -275.208)" fill="#fff"/>
        </g>
      </g>
      <g id="Group_10867" data-name="Group 10867" transform="translate(575.119 274.208)">
        <g id="Group_10866" data-name="Group 10866" transform="translate(0 0)">
          <path id="Path_13339" data-name="Path 13339" d="M579.921,290.747a.956.956,0,0,1-.947-.846l-.123-1.152-1.245.138a.85.85,0,0,1-.2.025H577.4a1.488,1.488,0,0,1-1.12-.7,5.651,5.651,0,0,1-.883-1.779c-.417-1.382-.447-2.926.427-3.264l14.284-8.705a1.063,1.063,0,0,1,.387-.22l.015,0h.054a1.048,1.048,0,0,1,.246-.032c1.466,0,3.036,2.943,3.875,5.677a15.989,15.989,0,0,1,.8,4.46c.008,1.843-.57,2.408-1.057,2.558a1.066,1.066,0,0,1-.311.046l-8.379.964.131,1.265a.958.958,0,0,1-.846,1.049l-5.012.521h-.1Zm-.066-.921a.054.054,0,0,0,.054.048l5.016-.521a.054.054,0,0,0,.029-.012l0-.008a.054.054,0,0,0,.01-.029l-.127-1.26-5.109.6ZM576.147,284a3.024,3.024,0,0,0,.12,2.159c.384,1.22.974,1.849,1.142,1.849h.077l2.382-.278a8.811,8.811,0,0,1-1.564-5.011l-2.1,1.276a.05.05,0,0,1-.026.007Zm3.093-1.84a8.161,8.161,0,0,0,1.679,5.443l11.856-1.4a13.87,13.87,0,0,1-2.525-4.927,15.99,15.99,0,0,1-.8-4.46,6.332,6.332,0,0,1,.054-.906Zm11.434-6.965c-.1.115-.331.5-.331,1.619a15.092,15.092,0,0,0,.747,4.2c.984,3.165,2.4,4.988,3,5.038h.091c.073-.044.413-.323.4-1.688a15.09,15.09,0,0,0-.747-4.2,14.882,14.882,0,0,0-1.681-3.752c-.624-.951-1.1-1.289-1.341-1.289H590.8Z" transform="translate(-575.119 -274.208)" fill="#fff"/>
        </g>
      </g>
    </g>
  </g>
</svg>
