<svg xmlns="http://www.w3.org/2000/svg" width="44.578" height="44.578" viewBox="0 0 44.578 44.578">
  <g id="Group_12052" data-name="Group 12052" transform="translate(-254 -902.422)">
    <g id="Group_12051" data-name="Group 12051" transform="translate(254 902.422)">
      <g id="Group_12036" data-name="Group 12036">
        <g id="Group_11376" data-name="Group 11376" transform="translate(0)">
          <circle id="Ellipse_850" data-name="Ellipse 850" cx="22.289" cy="22.289" r="22.289" fill="#ff6473"/>
        </g>
      </g>
    </g>
    <path id="lightbulb-regular" d="M8.319,3.781A4.542,4.542,0,0,0,3.781,8.319a.756.756,0,1,0,1.513,0A3.029,3.029,0,0,1,8.319,5.294a.756.756,0,1,0,0-1.513ZM4.541,21.7a.751.751,0,0,0,.127.418l1.159,1.741a.757.757,0,0,0,.63.337h3.727a.755.755,0,0,0,.63-.337l1.159-1.741A.76.76,0,0,0,12.1,21.7l0-2.041H4.539ZM8.319,0a8.315,8.315,0,0,0-6.26,13.792,13.527,13.527,0,0,1,2.478,4.356v0H6.806v-.006a2.236,2.236,0,0,0-.1-.665A14.9,14.9,0,0,0,3.765,12.3a6.05,6.05,0,1,1,9.108,0A14.938,14.938,0,0,0,9.938,17.47a2.246,2.246,0,0,0-.1.676v0H12.1v0a13.516,13.516,0,0,1,2.478-4.356A8.315,8.315,0,0,0,8.319,0Z" transform="translate(268 912.79)" fill="#fff"/>
  </g>
</svg>
