<svg xmlns="http://www.w3.org/2000/svg" width="33.899" height="33.899" viewBox="0 0 33.899 33.899">
  <g id="Group_11254" data-name="Group 11254" transform="translate(-2446.59 -994.229)">
    <circle id="Ellipse_824" data-name="Ellipse 824" cx="16.45" cy="16.45" r="16.45" transform="translate(2447.09 994.729)" fill="#ddd" stroke="#aaa" stroke-miterlimit="10" stroke-width="1"/>
    <g id="Group_8224" data-name="Group 8224" transform="translate(2452.234 1002.965)">
      <g id="Group_8222" data-name="Group 8222" transform="translate(0 0)">
        <path id="Path_9836" data-name="Path 9836" d="M2736.6,1478.6a1.415,1.415,0,0,0-1.2,2.162c-1.6.965-3.2,3.153-4.584,4.384-1.146-1.318-2.382-3.7-3.766-5.206a1.415,1.415,0,1,0-.9,0c-1.384,1.507-2.621,3.887-3.766,5.206-1.34-1.19-2.875-3.337-4.426-4.287a1.416,1.416,0,1,0-.556.447c.2,1.029.447,3,.68,4.028.3,1.314.578,5.505.73,6.834,1.307-.006,2.607,0,3.9,0s2.591,0,3.885,0,2.587,0,3.885,0,2.6-.006,3.9,0c.152-1.329.432-5.521.73-6.834.242-1.062.495-3.073.7-4.14a1.415,1.415,0,1,0,.781-2.594Z" transform="translate(-2715.403 -1477.18)" fill="#fff"/>
      </g>
      <g id="Group_8223" data-name="Group 8223" transform="translate(2.345 14.532)">
        <rect id="Rectangle_3564" data-name="Rectangle 3564" width="17.921" height="1.964" rx="0.323" fill="#fff"/>
      </g>
    </g>
  </g>
</svg>
